<svg xmlns="http://www.w3.org/2000/svg" width="1280" height="520" viewBox="0 0 1280 520">
<rect width="1280" height="520" fill="#f3f1eb"/>
<text x="30" y="35" font-family="sans-serif" font-size="20">P07: draw-through test fixtures — NOT a crochet stitch or product render</text>
<polyline points="196.10,305.00 197.55,305.96 198.85,306.92 200.02,307.88 201.04,308.83 201.92,309.77 202.64,310.70 203.22,311.61 203.64,312.51 203.91,313.40 204.02,314.26 203.98,315.09 203.79,315.91 203.44,316.70 202.94,317.46 202.29,318.19 201.49,318.88 200.54,319.55 199.44,320.18 198.20,320.77 196.82,321.33 195.31,321.84 193.66,322.32 191.88,322.75 189.97,323.14 187.95,323.49 185.81,323.79 183.56,324.05 181.21,324.26 178.75,324.42 176.21,324.54 173.57,324.61 170.86,324.63 168.07,324.61 165.21,324.54 162.29,324.42 159.32,324.26 156.30,324.05 153.24,323.79 150.15,323.49 147.04,323.14 143.91,322.75 140.77,322.32 137.62,321.84 134.49,321.33 131.36,320.77 128.26,320.18 125.19,319.55 122.15,318.88 119.15,318.19 116.21,317.46 113.32,316.70 110.50,315.91 107.74,315.09 105.07,314.26 102.48,313.40 99.98,312.51 97.57,311.61 95.27,310.70 93.08,309.77 91.00,308.83 89.03,307.88 87.19,306.92 85.48,305.96 83.90,305.00 82.45,304.04 81.15,303.08 79.98,302.12 78.96,301.17 78.08,300.23 77.36,299.30 76.78,298.39 76.36,297.49 76.09,296.60 75.98,295.74 76.02,294.91 76.21,294.09 76.56,293.30 77.06,292.54 77.71,291.81 78.51,291.12 79.46,290.45 80.56,289.82 81.80,289.23 83.18,288.67 84.69,288.16 86.34,287.68 88.12,287.25 90.03,286.86 92.05,286.51 94.19,286.21 96.44,285.95 98.79,285.74 101.25,285.58 103.79,285.46 106.43,285.39 109.14,285.37 111.93,285.39 114.79,285.46 117.71,285.58 120.68,285.74 123.70,285.95 126.76,286.21 129.85,286.51 132.96,286.86 136.09,287.25 139.23,287.68 142.38,288.16 145.51,288.67 148.64,289.23 151.74,289.82 154.81,290.45 157.85,291.12 160.85,291.81 163.79,292.54 166.68,293.30 169.50,294.09 172.26,294.91 174.93,295.74 177.52,296.60 180.02,297.49 182.43,298.39 184.73,299.30 186.92,300.23 189.00,301.17 190.97,302.12 192.81,303.08 194.52,304.04 196.10,305.00" stroke="#7d8c96" stroke-width="4" fill="none" stroke-linecap="round"/>
<polyline points="196.10,254.00 197.55,254.96 198.85,255.92 200.02,256.88 201.04,257.83 201.92,258.77 202.64,259.70 203.22,260.61 203.64,261.51 203.91,262.40 204.02,263.26 203.98,264.09 203.79,264.91 203.44,265.70 202.94,266.46 202.29,267.19 201.49,267.88 200.54,268.55 199.44,269.18 198.20,269.77 196.82,270.33 195.31,270.84 193.66,271.32 191.88,271.75 189.97,272.14 187.95,272.49 185.81,272.79 183.56,273.05 181.21,273.26 178.75,273.42 176.21,273.54 173.57,273.61 170.86,273.63 168.07,273.61 165.21,273.54 162.29,273.42 159.32,273.26 156.30,273.05 153.24,272.79 150.15,272.49 147.04,272.14 143.91,271.75 140.77,271.32 137.62,270.84 134.49,270.33 131.36,269.77 128.26,269.18 125.19,268.55 122.15,267.88 119.15,267.19 116.21,266.46 113.32,265.70 110.50,264.91 107.74,264.09 105.07,263.26 102.48,262.40 99.98,261.51 97.57,260.61 95.27,259.70 93.08,258.77 91.00,257.83 89.03,256.88 87.19,255.92 85.48,254.96 83.90,254.00 82.45,253.04 81.15,252.08 79.98,251.12 78.96,250.17 78.08,249.23 77.36,248.30 76.78,247.39 76.36,246.49 76.09,245.60 75.98,244.74 76.02,243.91 76.21,243.09 76.56,242.30 77.06,241.54 77.71,240.81 78.51,240.12 79.46,239.45 80.56,238.82 81.80,238.23 83.18,237.67 84.69,237.16 86.34,236.68 88.12,236.25 90.03,235.86 92.05,235.51 94.19,235.21 96.44,234.95 98.79,234.74 101.25,234.58 103.79,234.46 106.43,234.39 109.14,234.37 111.93,234.39 114.79,234.46 117.71,234.58 120.68,234.74 123.70,234.95 126.76,235.21 129.85,235.51 132.96,235.86 136.09,236.25 139.23,236.68 142.38,237.16 145.51,237.67 148.64,238.23 151.74,238.82 154.81,239.45 157.85,240.12 160.85,240.81 163.79,241.54 166.68,242.30 169.50,243.09 172.26,243.91 174.93,244.74 177.52,245.60 180.02,246.49 182.43,247.39 184.73,248.30 186.92,249.23 189.00,250.17 190.97,251.12 192.81,252.08 194.52,253.04 196.10,254.00" stroke="#a2b5a2" stroke-width="4" fill="none" stroke-linecap="round"/>
<polyline points="196.10,203.00 197.55,203.96 198.85,204.92 200.02,205.88 201.04,206.83 201.92,207.77 202.64,208.70 203.22,209.61 203.64,210.51 203.91,211.40 204.02,212.26 203.98,213.09 203.79,213.91 203.44,214.70 202.94,215.46 202.29,216.19 201.49,216.88 200.54,217.55 199.44,218.18 198.20,218.77 196.82,219.33 195.31,219.84 193.66,220.32 191.88,220.75 189.97,221.14 187.95,221.49 185.81,221.79 183.56,222.05 181.21,222.26 178.75,222.42 176.21,222.54 173.57,222.61 170.86,222.63 168.07,222.61 165.21,222.54 162.29,222.42 159.32,222.26 156.30,222.05 153.24,221.79 150.15,221.49 147.04,221.14 143.91,220.75 140.77,220.32 137.62,219.84 134.49,219.33 131.36,218.77 128.26,218.18 125.19,217.55 122.15,216.88 119.15,216.19 116.21,215.46 113.32,214.70 110.50,213.91 107.74,213.09 105.07,212.26 102.48,211.40 99.98,210.51 97.57,209.61 95.27,208.70 93.08,207.77 91.00,206.83 89.03,205.88 87.19,204.92 85.48,203.96 83.90,203.00 82.45,202.04 81.15,201.08 79.98,200.12 78.96,199.17 78.08,198.23 77.36,197.30 76.78,196.39 76.36,195.49 76.09,194.60 75.98,193.74 76.02,192.91 76.21,192.09 76.56,191.30 77.06,190.54 77.71,189.81 78.51,189.12 79.46,188.45 80.56,187.82 81.80,187.23 83.18,186.67 84.69,186.16 86.34,185.68 88.12,185.25 90.03,184.86 92.05,184.51 94.19,184.21 96.44,183.95 98.79,183.74 101.25,183.58 103.79,183.46 106.43,183.39 109.14,183.37 111.93,183.39 114.79,183.46 117.71,183.58 120.68,183.74 123.70,183.95 126.76,184.21 129.85,184.51 132.96,184.86 136.09,185.25 139.23,185.68 142.38,186.16 145.51,186.67 148.64,187.23 151.74,187.82 154.81,188.45 157.85,189.12 160.85,189.81 163.79,190.54 166.68,191.30 169.50,192.09 172.26,192.91 174.93,193.74 177.52,194.60 180.02,195.49 182.43,196.39 184.73,197.30 186.92,198.23 189.00,199.17 190.97,200.12 192.81,201.08 194.52,202.04 196.10,203.00" stroke="#ce9471" stroke-width="4" fill="none" stroke-linecap="round"/>
<polyline points="121.30,424.00 121.30,416.42 121.30,408.84 121.30,401.26 121.30,393.68 121.30,386.10 121.30,378.52 121.30,370.95 121.30,363.37 121.30,355.79 121.30,348.21 121.30,340.63 121.30,333.05 121.30,325.47 121.30,317.89 121.30,310.31 121.30,302.73 121.30,295.15 121.30,287.58 121.30,280.00 121.30,272.42 121.30,264.84 121.30,257.26 121.30,249.68 121.30,242.10 121.46,239.66 121.94,237.26 122.72,234.94 123.81,232.75 125.16,230.72 126.78,228.88 128.62,227.26 130.65,225.91 132.84,224.82 135.16,224.04 137.56,223.56 140.00,223.40 142.44,223.56 144.84,224.04 147.16,224.82 149.35,225.91 151.38,227.26 153.22,228.88 154.84,230.72 156.19,232.75 157.28,234.94 158.06,237.26 158.54,239.66 158.70,242.10 158.70,249.68 158.70,257.26 158.70,264.84 158.70,272.42 158.70,280.00 158.70,287.57 158.70,295.15 158.70,302.73 158.70,310.31 158.70,317.89 158.70,325.47 158.70,333.05 158.70,340.63 158.70,348.21 158.70,355.79 158.70,363.37 158.70,370.95 158.70,378.52 158.70,386.10 158.70,393.68 158.70,401.26 158.70,408.84 158.70,416.42 158.70,424.00" stroke="#553575" stroke-width="5" fill="none" stroke-linecap="round"/>
<text x="28" y="450" font-family="sans-serif" font-size="15">stage1_two_of_three: PASS</text>
<text x="28" y="475" font-family="sans-serif" font-size="12">Local passage/clearance only</text>
<polyline points="511.10,305.00 512.55,305.96 513.85,306.92 515.02,307.88 516.04,308.83 516.92,309.77 517.64,310.70 518.22,311.61 518.64,312.51 518.91,313.40 519.02,314.26 518.98,315.09 518.79,315.91 518.44,316.70 517.94,317.46 517.29,318.19 516.49,318.88 515.54,319.55 514.44,320.18 513.20,320.77 511.82,321.33 510.31,321.84 508.66,322.32 506.88,322.75 504.97,323.14 502.95,323.49 500.81,323.79 498.56,324.05 496.21,324.26 493.75,324.42 491.21,324.54 488.57,324.61 485.86,324.63 483.07,324.61 480.21,324.54 477.29,324.42 474.32,324.26 471.30,324.05 468.24,323.79 465.15,323.49 462.04,323.14 458.91,322.75 455.77,322.32 452.62,321.84 449.49,321.33 446.36,320.77 443.26,320.18 440.19,319.55 437.15,318.88 434.15,318.19 431.21,317.46 428.32,316.70 425.50,315.91 422.74,315.09 420.07,314.26 417.48,313.40 414.98,312.51 412.57,311.61 410.27,310.70 408.08,309.77 406.00,308.83 404.03,307.88 402.19,306.92 400.48,305.96 398.90,305.00 397.45,304.04 396.15,303.08 394.98,302.12 393.96,301.17 393.08,300.23 392.36,299.30 391.78,298.39 391.36,297.49 391.09,296.60 390.98,295.74 391.02,294.91 391.21,294.09 391.56,293.30 392.06,292.54 392.71,291.81 393.51,291.12 394.46,290.45 395.56,289.82 396.80,289.23 398.18,288.67 399.69,288.16 401.34,287.68 403.12,287.25 405.03,286.86 407.05,286.51 409.19,286.21 411.44,285.95 413.79,285.74 416.25,285.58 418.79,285.46 421.43,285.39 424.14,285.37 426.93,285.39 429.79,285.46 432.71,285.58 435.68,285.74 438.70,285.95 441.76,286.21 444.85,286.51 447.96,286.86 451.09,287.25 454.23,287.68 457.38,288.16 460.51,288.67 463.64,289.23 466.74,289.82 469.81,290.45 472.85,291.12 475.85,291.81 478.79,292.54 481.68,293.30 484.50,294.09 487.26,294.91 489.93,295.74 492.52,296.60 495.02,297.49 497.43,298.39 499.73,299.30 501.92,300.23 504.00,301.17 505.97,302.12 507.81,303.08 509.52,304.04 511.10,305.00" stroke="#7d8c96" stroke-width="4" fill="none" stroke-linecap="round"/>
<polyline points="511.10,254.00 512.55,254.96 513.85,255.92 515.02,256.88 516.04,257.83 516.92,258.77 517.64,259.70 518.22,260.61 518.64,261.51 518.91,262.40 519.02,263.26 518.98,264.09 518.79,264.91 518.44,265.70 517.94,266.46 517.29,267.19 516.49,267.88 515.54,268.55 514.44,269.18 513.20,269.77 511.82,270.33 510.31,270.84 508.66,271.32 506.88,271.75 504.97,272.14 502.95,272.49 500.81,272.79 498.56,273.05 496.21,273.26 493.75,273.42 491.21,273.54 488.57,273.61 485.86,273.63 483.07,273.61 480.21,273.54 477.29,273.42 474.32,273.26 471.30,273.05 468.24,272.79 465.15,272.49 462.04,272.14 458.91,271.75 455.77,271.32 452.62,270.84 449.49,270.33 446.36,269.77 443.26,269.18 440.19,268.55 437.15,267.88 434.15,267.19 431.21,266.46 428.32,265.70 425.50,264.91 422.74,264.09 420.07,263.26 417.48,262.40 414.98,261.51 412.57,260.61 410.27,259.70 408.08,258.77 406.00,257.83 404.03,256.88 402.19,255.92 400.48,254.96 398.90,254.00 397.45,253.04 396.15,252.08 394.98,251.12 393.96,250.17 393.08,249.23 392.36,248.30 391.78,247.39 391.36,246.49 391.09,245.60 390.98,244.74 391.02,243.91 391.21,243.09 391.56,242.30 392.06,241.54 392.71,240.81 393.51,240.12 394.46,239.45 395.56,238.82 396.80,238.23 398.18,237.67 399.69,237.16 401.34,236.68 403.12,236.25 405.03,235.86 407.05,235.51 409.19,235.21 411.44,234.95 413.79,234.74 416.25,234.58 418.79,234.46 421.43,234.39 424.14,234.37 426.93,234.39 429.79,234.46 432.71,234.58 435.68,234.74 438.70,234.95 441.76,235.21 444.85,235.51 447.96,235.86 451.09,236.25 454.23,236.68 457.38,237.16 460.51,237.67 463.64,238.23 466.74,238.82 469.81,239.45 472.85,240.12 475.85,240.81 478.79,241.54 481.68,242.30 484.50,243.09 487.26,243.91 489.93,244.74 492.52,245.60 495.02,246.49 497.43,247.39 499.73,248.30 501.92,249.23 504.00,250.17 505.97,251.12 507.81,252.08 509.52,253.04 511.10,254.00" stroke="#a2b5a2" stroke-width="4" fill="none" stroke-linecap="round"/>
<polyline points="436.30,424.00 436.30,416.42 436.30,408.84 436.30,401.26 436.30,393.68 436.30,386.10 436.30,378.52 436.30,370.95 436.30,363.37 436.30,355.79 436.30,348.21 436.30,340.63 436.30,333.05 436.30,325.47 436.30,317.89 436.30,310.31 436.30,302.73 436.30,295.15 436.30,287.58 436.30,280.00 436.30,272.42 436.30,264.84 436.30,257.26 436.30,249.68 436.30,242.10 436.46,239.66 436.94,237.26 437.72,234.94 438.81,232.75 440.16,230.72 441.78,228.88 443.62,227.26 445.65,225.91 447.84,224.82 450.16,224.04 452.56,223.56 455.00,223.40 457.44,223.56 459.84,224.04 462.16,224.82 464.35,225.91 466.38,227.26 468.22,228.88 469.84,230.72 471.19,232.75 472.28,234.94 473.06,237.26 473.54,239.66 473.70,242.10 473.70,249.68 473.70,257.26 473.70,264.84 473.70,272.42 473.70,280.00 473.70,287.57 473.70,295.15 473.70,302.73 473.70,310.31 473.70,317.89 473.70,325.47 473.70,333.05 473.70,340.63 473.70,348.21 473.70,355.79 473.70,363.37 473.70,370.95 473.70,378.52 473.70,386.10 473.70,393.68 473.70,401.26 473.70,408.84 473.70,416.42 473.70,424.00" stroke="#553575" stroke-width="5" fill="none" stroke-linecap="round"/>
<text x="343" y="450" font-family="sans-serif" font-size="15">stage2_two_of_two: PASS</text>
<text x="343" y="475" font-family="sans-serif" font-size="12">Local passage/clearance only</text>
<polyline points="826.10,305.00 827.55,305.96 828.85,306.92 830.02,307.88 831.04,308.83 831.92,309.77 832.64,310.70 833.22,311.61 833.64,312.51 833.91,313.40 834.02,314.26 833.98,315.09 833.79,315.91 833.44,316.70 832.94,317.46 832.29,318.19 831.49,318.88 830.54,319.55 829.44,320.18 828.20,320.77 826.82,321.33 825.31,321.84 823.66,322.32 821.88,322.75 819.97,323.14 817.95,323.49 815.81,323.79 813.56,324.05 811.21,324.26 808.75,324.42 806.21,324.54 803.57,324.61 800.86,324.63 798.07,324.61 795.21,324.54 792.29,324.42 789.32,324.26 786.30,324.05 783.24,323.79 780.15,323.49 777.04,323.14 773.91,322.75 770.77,322.32 767.62,321.84 764.49,321.33 761.36,320.77 758.26,320.18 755.19,319.55 752.15,318.88 749.15,318.19 746.21,317.46 743.32,316.70 740.50,315.91 737.74,315.09 735.07,314.26 732.48,313.40 729.98,312.51 727.57,311.61 725.27,310.70 723.08,309.77 721.00,308.83 719.03,307.88 717.19,306.92 715.48,305.96 713.90,305.00 712.45,304.04 711.15,303.08 709.98,302.12 708.96,301.17 708.08,300.23 707.36,299.30 706.78,298.39 706.36,297.49 706.09,296.60 705.98,295.74 706.02,294.91 706.21,294.09 706.56,293.30 707.06,292.54 707.71,291.81 708.51,291.12 709.46,290.45 710.56,289.82 711.80,289.23 713.18,288.67 714.69,288.16 716.34,287.68 718.12,287.25 720.03,286.86 722.05,286.51 724.19,286.21 726.44,285.95 728.79,285.74 731.25,285.58 733.79,285.46 736.43,285.39 739.14,285.37 741.93,285.39 744.79,285.46 747.71,285.58 750.68,285.74 753.70,285.95 756.76,286.21 759.85,286.51 762.96,286.86 766.09,287.25 769.23,287.68 772.38,288.16 775.51,288.67 778.64,289.23 781.74,289.82 784.81,290.45 787.85,291.12 790.85,291.81 793.79,292.54 796.68,293.30 799.50,294.09 802.26,294.91 804.93,295.74 807.52,296.60 810.02,297.49 812.43,298.39 814.73,299.30 816.92,300.23 819.00,301.17 820.97,302.12 822.81,303.08 824.52,304.04 826.10,305.00" stroke="#7d8c96" stroke-width="4" fill="none" stroke-linecap="round"/>
<polyline points="826.10,254.00 827.55,254.96 828.85,255.92 830.02,256.88 831.04,257.83 831.92,258.77 832.64,259.70 833.22,260.61 833.64,261.51 833.91,262.40 834.02,263.26 833.98,264.09 833.79,264.91 833.44,265.70 832.94,266.46 832.29,267.19 831.49,267.88 830.54,268.55 829.44,269.18 828.20,269.77 826.82,270.33 825.31,270.84 823.66,271.32 821.88,271.75 819.97,272.14 817.95,272.49 815.81,272.79 813.56,273.05 811.21,273.26 808.75,273.42 806.21,273.54 803.57,273.61 800.86,273.63 798.07,273.61 795.21,273.54 792.29,273.42 789.32,273.26 786.30,273.05 783.24,272.79 780.15,272.49 777.04,272.14 773.91,271.75 770.77,271.32 767.62,270.84 764.49,270.33 761.36,269.77 758.26,269.18 755.19,268.55 752.15,267.88 749.15,267.19 746.21,266.46 743.32,265.70 740.50,264.91 737.74,264.09 735.07,263.26 732.48,262.40 729.98,261.51 727.57,260.61 725.27,259.70 723.08,258.77 721.00,257.83 719.03,256.88 717.19,255.92 715.48,254.96 713.90,254.00 712.45,253.04 711.15,252.08 709.98,251.12 708.96,250.17 708.08,249.23 707.36,248.30 706.78,247.39 706.36,246.49 706.09,245.60 705.98,244.74 706.02,243.91 706.21,243.09 706.56,242.30 707.06,241.54 707.71,240.81 708.51,240.12 709.46,239.45 710.56,238.82 711.80,238.23 713.18,237.67 714.69,237.16 716.34,236.68 718.12,236.25 720.03,235.86 722.05,235.51 724.19,235.21 726.44,234.95 728.79,234.74 731.25,234.58 733.79,234.46 736.43,234.39 739.14,234.37 741.93,234.39 744.79,234.46 747.71,234.58 750.68,234.74 753.70,234.95 756.76,235.21 759.85,235.51 762.96,235.86 766.09,236.25 769.23,236.68 772.38,237.16 775.51,237.67 778.64,238.23 781.74,238.82 784.81,239.45 787.85,240.12 790.85,240.81 793.79,241.54 796.68,242.30 799.50,243.09 802.26,243.91 804.93,244.74 807.52,245.60 810.02,246.49 812.43,247.39 814.73,248.30 816.92,249.23 819.00,250.17 820.97,251.12 822.81,252.08 824.52,253.04 826.10,254.00" stroke="#a2b5a2" stroke-width="4" fill="none" stroke-linecap="round"/>
<polyline points="826.10,203.00 827.55,203.96 828.85,204.92 830.02,205.88 831.04,206.83 831.92,207.77 832.64,208.70 833.22,209.61 833.64,210.51 833.91,211.40 834.02,212.26 833.98,213.09 833.79,213.91 833.44,214.70 832.94,215.46 832.29,216.19 831.49,216.88 830.54,217.55 829.44,218.18 828.20,218.77 826.82,219.33 825.31,219.84 823.66,220.32 821.88,220.75 819.97,221.14 817.95,221.49 815.81,221.79 813.56,222.05 811.21,222.26 808.75,222.42 806.21,222.54 803.57,222.61 800.86,222.63 798.07,222.61 795.21,222.54 792.29,222.42 789.32,222.26 786.30,222.05 783.24,221.79 780.15,221.49 777.04,221.14 773.91,220.75 770.77,220.32 767.62,219.84 764.49,219.33 761.36,218.77 758.26,218.18 755.19,217.55 752.15,216.88 749.15,216.19 746.21,215.46 743.32,214.70 740.50,213.91 737.74,213.09 735.07,212.26 732.48,211.40 729.98,210.51 727.57,209.61 725.27,208.70 723.08,207.77 721.00,206.83 719.03,205.88 717.19,204.92 715.48,203.96 713.90,203.00 712.45,202.04 711.15,201.08 709.98,200.12 708.96,199.17 708.08,198.23 707.36,197.30 706.78,196.39 706.36,195.49 706.09,194.60 705.98,193.74 706.02,192.91 706.21,192.09 706.56,191.30 707.06,190.54 707.71,189.81 708.51,189.12 709.46,188.45 710.56,187.82 711.80,187.23 713.18,186.67 714.69,186.16 716.34,185.68 718.12,185.25 720.03,184.86 722.05,184.51 724.19,184.21 726.44,183.95 728.79,183.74 731.25,183.58 733.79,183.46 736.43,183.39 739.14,183.37 741.93,183.39 744.79,183.46 747.71,183.58 750.68,183.74 753.70,183.95 756.76,184.21 759.85,184.51 762.96,184.86 766.09,185.25 769.23,185.68 772.38,186.16 775.51,186.67 778.64,187.23 781.74,187.82 784.81,188.45 787.85,189.12 790.85,189.81 793.79,190.54 796.68,191.30 799.50,192.09 802.26,192.91 804.93,193.74 807.52,194.60 810.02,195.49 812.43,196.39 814.73,197.30 816.92,198.23 819.00,199.17 820.97,200.12 822.81,201.08 824.52,202.04 826.10,203.00" stroke="#ce9471" stroke-width="4" fill="none" stroke-linecap="round"/>
<polyline points="751.30,424.00 751.30,418.55 751.30,413.09 751.30,407.64 751.30,402.18 751.30,396.73 751.30,391.27 751.30,385.82 751.30,380.37 751.30,374.91 751.30,369.46 751.30,364.00 751.30,358.55 751.30,353.10 751.30,347.64 751.30,342.19 751.30,336.73 751.30,331.28 751.30,325.82 751.30,320.37 751.30,314.92 751.30,309.46 751.30,304.01 751.30,298.55 751.30,293.10 751.46,290.66 751.94,288.26 752.72,285.94 753.81,283.75 755.16,281.72 756.78,279.88 758.62,278.26 760.65,276.91 762.84,275.82 765.16,275.04 767.56,274.56 770.00,274.40 772.44,274.56 774.84,275.04 777.16,275.82 779.35,276.91 781.38,278.26 783.22,279.88 784.84,281.72 786.19,283.75 787.28,285.94 788.06,288.26 788.54,290.66 788.70,293.10 788.70,298.55 788.70,304.01 788.70,309.46 788.70,314.92 788.70,320.37 788.70,325.82 788.70,331.28 788.70,336.73 788.70,342.19 788.70,347.64 788.70,353.10 788.70,358.55 788.70,364.00 788.70,369.46 788.70,374.91 788.70,380.37 788.70,385.82 788.70,391.27 788.70,396.73 788.70,402.18 788.70,407.64 788.70,413.09 788.70,418.55 788.70,424.00" stroke="#553575" stroke-width="5" fill="none" stroke-linecap="round"/>
<text x="658" y="450" font-family="sans-serif" font-size="15">miss_second_loop: FAIL</text>
<text x="658" y="475" font-family="sans-serif" font-size="12">Local passage/clearance only</text>
<polyline points="1141.10,305.00 1142.55,305.96 1143.85,306.92 1145.02,307.88 1146.04,308.83 1146.92,309.77 1147.64,310.70 1148.22,311.61 1148.64,312.51 1148.91,313.40 1149.02,314.26 1148.98,315.09 1148.79,315.91 1148.44,316.70 1147.94,317.46 1147.29,318.19 1146.49,318.88 1145.54,319.55 1144.44,320.18 1143.20,320.77 1141.82,321.33 1140.31,321.84 1138.66,322.32 1136.88,322.75 1134.97,323.14 1132.95,323.49 1130.81,323.79 1128.56,324.05 1126.21,324.26 1123.75,324.42 1121.21,324.54 1118.57,324.61 1115.86,324.63 1113.07,324.61 1110.21,324.54 1107.29,324.42 1104.32,324.26 1101.30,324.05 1098.24,323.79 1095.15,323.49 1092.04,323.14 1088.91,322.75 1085.77,322.32 1082.62,321.84 1079.49,321.33 1076.36,320.77 1073.26,320.18 1070.19,319.55 1067.15,318.88 1064.15,318.19 1061.21,317.46 1058.32,316.70 1055.50,315.91 1052.74,315.09 1050.07,314.26 1047.48,313.40 1044.98,312.51 1042.57,311.61 1040.27,310.70 1038.08,309.77 1036.00,308.83 1034.03,307.88 1032.19,306.92 1030.48,305.96 1028.90,305.00 1027.45,304.04 1026.15,303.08 1024.98,302.12 1023.96,301.17 1023.08,300.23 1022.36,299.30 1021.78,298.39 1021.36,297.49 1021.09,296.60 1020.98,295.74 1021.02,294.91 1021.21,294.09 1021.56,293.30 1022.06,292.54 1022.71,291.81 1023.51,291.12 1024.46,290.45 1025.56,289.82 1026.80,289.23 1028.18,288.67 1029.69,288.16 1031.34,287.68 1033.12,287.25 1035.03,286.86 1037.05,286.51 1039.19,286.21 1041.44,285.95 1043.79,285.74 1046.25,285.58 1048.79,285.46 1051.43,285.39 1054.14,285.37 1056.93,285.39 1059.79,285.46 1062.71,285.58 1065.68,285.74 1068.70,285.95 1071.76,286.21 1074.85,286.51 1077.96,286.86 1081.09,287.25 1084.23,287.68 1087.38,288.16 1090.51,288.67 1093.64,289.23 1096.74,289.82 1099.81,290.45 1102.85,291.12 1105.85,291.81 1108.79,292.54 1111.68,293.30 1114.50,294.09 1117.26,294.91 1119.93,295.74 1122.52,296.60 1125.02,297.49 1127.43,298.39 1129.73,299.30 1131.92,300.23 1134.00,301.17 1135.97,302.12 1137.81,303.08 1139.52,304.04 1141.10,305.00" stroke="#7d8c96" stroke-width="4" fill="none" stroke-linecap="round"/>
<polyline points="1141.10,254.00 1142.55,254.96 1143.85,255.92 1145.02,256.88 1146.04,257.83 1146.92,258.77 1147.64,259.70 1148.22,260.61 1148.64,261.51 1148.91,262.40 1149.02,263.26 1148.98,264.09 1148.79,264.91 1148.44,265.70 1147.94,266.46 1147.29,267.19 1146.49,267.88 1145.54,268.55 1144.44,269.18 1143.20,269.77 1141.82,270.33 1140.31,270.84 1138.66,271.32 1136.88,271.75 1134.97,272.14 1132.95,272.49 1130.81,272.79 1128.56,273.05 1126.21,273.26 1123.75,273.42 1121.21,273.54 1118.57,273.61 1115.86,273.63 1113.07,273.61 1110.21,273.54 1107.29,273.42 1104.32,273.26 1101.30,273.05 1098.24,272.79 1095.15,272.49 1092.04,272.14 1088.91,271.75 1085.77,271.32 1082.62,270.84 1079.49,270.33 1076.36,269.77 1073.26,269.18 1070.19,268.55 1067.15,267.88 1064.15,267.19 1061.21,266.46 1058.32,265.70 1055.50,264.91 1052.74,264.09 1050.07,263.26 1047.48,262.40 1044.98,261.51 1042.57,260.61 1040.27,259.70 1038.08,258.77 1036.00,257.83 1034.03,256.88 1032.19,255.92 1030.48,254.96 1028.90,254.00 1027.45,253.04 1026.15,252.08 1024.98,251.12 1023.96,250.17 1023.08,249.23 1022.36,248.30 1021.78,247.39 1021.36,246.49 1021.09,245.60 1020.98,244.74 1021.02,243.91 1021.21,243.09 1021.56,242.30 1022.06,241.54 1022.71,240.81 1023.51,240.12 1024.46,239.45 1025.56,238.82 1026.80,238.23 1028.18,237.67 1029.69,237.16 1031.34,236.68 1033.12,236.25 1035.03,235.86 1037.05,235.51 1039.19,235.21 1041.44,234.95 1043.79,234.74 1046.25,234.58 1048.79,234.46 1051.43,234.39 1054.14,234.37 1056.93,234.39 1059.79,234.46 1062.71,234.58 1065.68,234.74 1068.70,234.95 1071.76,235.21 1074.85,235.51 1077.96,235.86 1081.09,236.25 1084.23,236.68 1087.38,237.16 1090.51,237.67 1093.64,238.23 1096.74,238.82 1099.81,239.45 1102.85,240.12 1105.85,240.81 1108.79,241.54 1111.68,242.30 1114.50,243.09 1117.26,243.91 1119.93,244.74 1122.52,245.60 1125.02,246.49 1127.43,247.39 1129.73,248.30 1131.92,249.23 1134.00,250.17 1135.97,251.12 1137.81,252.08 1139.52,253.04 1141.10,254.00" stroke="#a2b5a2" stroke-width="4" fill="none" stroke-linecap="round"/>
<polyline points="1141.10,203.00 1142.55,203.96 1143.85,204.92 1145.02,205.88 1146.04,206.83 1146.92,207.77 1147.64,208.70 1148.22,209.61 1148.64,210.51 1148.91,211.40 1149.02,212.26 1148.98,213.09 1148.79,213.91 1148.44,214.70 1147.94,215.46 1147.29,216.19 1146.49,216.88 1145.54,217.55 1144.44,218.18 1143.20,218.77 1141.82,219.33 1140.31,219.84 1138.66,220.32 1136.88,220.75 1134.97,221.14 1132.95,221.49 1130.81,221.79 1128.56,222.05 1126.21,222.26 1123.75,222.42 1121.21,222.54 1118.57,222.61 1115.86,222.63 1113.07,222.61 1110.21,222.54 1107.29,222.42 1104.32,222.26 1101.30,222.05 1098.24,221.79 1095.15,221.49 1092.04,221.14 1088.91,220.75 1085.77,220.32 1082.62,219.84 1079.49,219.33 1076.36,218.77 1073.26,218.18 1070.19,217.55 1067.15,216.88 1064.15,216.19 1061.21,215.46 1058.32,214.70 1055.50,213.91 1052.74,213.09 1050.07,212.26 1047.48,211.40 1044.98,210.51 1042.57,209.61 1040.27,208.70 1038.08,207.77 1036.00,206.83 1034.03,205.88 1032.19,204.92 1030.48,203.96 1028.90,203.00 1027.45,202.04 1026.15,201.08 1024.98,200.12 1023.96,199.17 1023.08,198.23 1022.36,197.30 1021.78,196.39 1021.36,195.49 1021.09,194.60 1020.98,193.74 1021.02,192.91 1021.21,192.09 1021.56,191.30 1022.06,190.54 1022.71,189.81 1023.51,189.12 1024.46,188.45 1025.56,187.82 1026.80,187.23 1028.18,186.67 1029.69,186.16 1031.34,185.68 1033.12,185.25 1035.03,184.86 1037.05,184.51 1039.19,184.21 1041.44,183.95 1043.79,183.74 1046.25,183.58 1048.79,183.46 1051.43,183.39 1054.14,183.37 1056.93,183.39 1059.79,183.46 1062.71,183.58 1065.68,183.74 1068.70,183.95 1071.76,184.21 1074.85,184.51 1077.96,184.86 1081.09,185.25 1084.23,185.68 1087.38,186.16 1090.51,186.67 1093.64,187.23 1096.74,187.82 1099.81,188.45 1102.85,189.12 1105.85,189.81 1108.79,190.54 1111.68,191.30 1114.50,192.09 1117.26,192.91 1119.93,193.74 1122.52,194.60 1125.02,195.49 1127.43,196.39 1129.73,197.30 1131.92,198.23 1134.00,199.17 1135.97,200.12 1137.81,201.08 1139.52,202.04 1141.10,203.00" stroke="#ce9471" stroke-width="4" fill="none" stroke-linecap="round"/>
<polyline points="1066.30,424.00 1066.30,414.30 1066.30,404.59 1066.30,394.89 1066.30,385.18 1066.30,375.48 1066.30,365.77 1066.30,356.07 1066.30,346.37 1066.30,336.66 1066.30,326.96 1066.30,317.25 1066.30,307.55 1066.30,297.85 1066.30,288.14 1066.30,278.44 1066.30,268.73 1066.30,259.03 1066.30,249.33 1066.30,239.62 1066.30,229.92 1066.30,220.21 1066.30,210.51 1066.30,200.80 1066.30,191.10 1066.46,188.66 1066.94,186.26 1067.72,183.94 1068.81,181.75 1070.16,179.72 1071.78,177.88 1073.62,176.26 1075.65,174.91 1077.84,173.82 1080.16,173.04 1082.56,172.56 1085.00,172.40 1087.44,172.56 1089.84,173.04 1092.16,173.82 1094.35,174.91 1096.38,176.26 1098.22,177.88 1099.84,179.72 1101.19,181.75 1102.28,183.94 1103.06,186.26 1103.54,188.66 1103.70,191.10 1103.70,200.80 1103.70,210.51 1103.70,220.21 1103.70,229.92 1103.70,239.62 1103.70,249.33 1103.70,259.03 1103.70,268.73 1103.70,278.44 1103.70,288.14 1103.70,297.85 1103.70,307.55 1103.70,317.25 1103.70,326.96 1103.70,336.66 1103.70,346.37 1103.70,356.07 1103.70,365.77 1103.70,375.48 1103.70,385.18 1103.70,394.89 1103.70,404.59 1103.70,414.30 1103.70,424.00" stroke="#553575" stroke-width="5" fill="none" stroke-linecap="round"/>
<text x="973" y="450" font-family="sans-serif" font-size="15">consume_third_loop: FAIL</text>
<text x="973" y="475" font-family="sans-serif" font-size="12">Local passage/clearance only</text>
</svg>