<svg xmlns="http://www.w3.org/2000/svg" viewBox="0 0 890.4 74.5" role="img" aria-label="Brambleloop"><title>Brambleloop</title><rect width="890.4" height="74.5" fill="#2F3E33"/><path d="M36.4 34.8L37.5 33.2Q44 33.2 48.9 35.4Q53.7 37.6 56.4 41.4Q59.1 45.3 59.1 50.3Q59.1 55.5 56.2 59.8Q53.4 64 48.4 66.5Q43.4 68.9 37.1 68.9Q34.2 68.9 30.1 68.6Q26 68.3 22.6 68.3Q19.1 68.3 15.9 68.4Q12.7 68.5 10.2 68.5Q9.9 68.5 9.9 67.9Q9.9 67.3 10.2 67.3Q13.3 67.3 14.9 66.8Q16.6 66.3 17.2 64.8Q17.9 63.3 17.9 60.4L17.9 14.1Q17.9 11.2 17.3 9.7Q16.7 8.3 15 7.7Q13.4 7.2 10.3 7.2Q10.1 7.2 10.1 6.6Q10.1 6 10.3 6Q12.8 6 16 6.1Q19.1 6.3 22.6 6.3Q25.4 6.3 28.6 6Q31.8 5.7 34.7 5.7Q40.7 5.7 44.7 7.3Q48.8 8.8 50.9 11.7Q53 14.6 53 18.7Q53 24.3 48.7 28.6Q44.4 33 36.4 34.8ZM33 7.7Q31 7.7 29.7 8.2Q28.5 8.7 28 10.1Q27.5 11.5 27.5 14.3L27.5 33.9L23.9 33.2Q27.2 33.3 29.3 33.3Q31.4 33.4 31.6 33.4Q37.8 33.4 40.7 29.4Q43.6 25.4 43.6 19.6Q43.6 15.9 42.5 13.2Q41.3 10.5 38.9 9.1Q36.6 7.7 33 7.7ZM35.5 66.6Q42.6 66.6 45.8 63Q49 59.3 49 52.7Q49 45.3 45.2 40.6Q41.3 35.9 33.5 35.9Q32 35.9 29.5 35.9Q27 36 24.3 36.5L27.5 35.3L27.5 60.4Q27.5 62.5 28 63.9Q28.5 65.3 30.3 66Q32 66.6 35.5 66.6ZM135 68.5Q133.5 68.5 130 64.7Q126.5 60.9 121.5 53.8Q116.6 46.6 110.5 36.7L118.5 34.3Q126.6 46.4 132.4 53.7Q138.1 60.9 142.6 64.1Q147 67.3 151.1 67.3Q151.3 67.3 151.3 67.9Q151.3 68.5 151.1 68.5Q144.8 68.5 140.8 68.5Q136.9 68.5 135 68.5ZM112.3 5.7Q121 5.7 125.7 9.1Q130.5 12.6 130.5 18.6Q130.5 24.3 127.2 28.8Q124 33.3 118.8 35.8Q113.7 38.3 107.8 38.3Q106.6 38.3 105.2 38.2Q103.8 38.2 102.7 38.1L102.7 60.4Q102.7 63.3 103.2 64.8Q103.7 66.3 105.3 66.8Q107 67.3 110.2 67.3Q110.5 67.3 110.5 67.9Q110.5 68.5 110.2 68.5Q107.7 68.5 104.6 68.4Q101.5 68.3 97.8 68.3Q94.3 68.3 91.1 68.4Q87.9 68.5 85.4 68.5Q85.1 68.5 85.1 67.9Q85.1 67.3 85.4 67.3Q88.7 67.3 90.3 66.8Q91.9 66.3 92.5 64.8Q93.1 63.3 93.1 60.4L93.1 14.1Q93.1 11.2 92.6 9.7Q92 8.3 90.4 7.7Q88.8 7.2 85.5 7.2Q85.3 7.2 85.3 6.6Q85.3 6 85.5 6Q88 6 91.2 6.1Q94.3 6.3 97.8 6.3Q101 6.3 105 6Q109 5.7 112.3 5.7ZM120.6 22.1Q120.6 16.3 119.3 13.2Q117.9 10 115.5 8.8Q113.1 7.6 109.9 7.6Q106 7.6 104.3 9Q102.7 10.5 102.7 14.3L102.7 35.4Q104.1 35.6 105.7 35.7Q107.3 35.8 108.5 35.8Q115.2 35.8 117.9 32.5Q120.6 29.1 120.6 22.1ZM185 44L186.3 41.5L214.3 41.5L215 44ZM238.2 67.3Q238.6 67.3 238.6 67.9Q238.6 68.5 238.2 68.5Q235.2 68.5 232.1 68.3Q228.9 68.1 226 68.1Q222.7 68.1 220.2 68.3Q217.8 68.5 214.8 68.5Q214.4 68.5 214.4 67.9Q214.4 67.3 214.8 67.3Q219.3 67.3 220.2 65.7Q221.1 64.1 218.7 59.4L197.8 16.9L201.9 10.2L182.1 54.8Q179.5 60.9 181.9 64.1Q184.4 67.3 190.3 67.3Q190.8 67.3 190.8 67.9Q190.8 68.5 190.3 68.5Q187.3 68.5 184.8 68.3Q182.3 68.1 178.5 68.1Q174.7 68.1 172.5 68.3Q170.2 68.5 166.9 68.5Q166.5 68.5 166.5 67.9Q166.5 67.3 166.9 67.3Q169.6 67.3 171.5 66.2Q173.5 65.1 175.4 62.2Q177.3 59.2 179.6 53.9L201.1 5.4Q201.3 5.1 202 5.1Q202.7 5.1 202.8 5.4L227.3 54.8Q229.6 59.6 231.4 62.3Q233.2 65.1 234.8 66.2Q236.4 67.3 238.2 67.3ZM266 56.4L267 8.3L269.7 8.5L268.6 56.4Q268.5 61.7 270.7 64.5Q272.8 67.3 277.1 67.3Q277.4 67.3 277.4 67.9Q277.4 68.5 277.1 68.5Q274.9 68.5 272.6 68.4Q270.3 68.3 267.4 68.3Q264.4 68.3 261.9 68.4Q259.5 68.5 257.3 68.5Q257 68.5 257 67.9Q257 67.3 257.3 67.3Q261.4 67.3 263.7 64.5Q265.9 61.7 266 56.4ZM336.8 67.3Q337 67.3 337 67.9Q337 68.5 336.8 68.5Q334.2 68.5 331 68.4Q327.8 68.3 324.3 68.3Q320.8 68.3 317.7 68.4Q314.7 68.5 312.2 68.5Q312 68.5 312 67.9Q312 67.3 312.2 67.3Q317 67.3 318.4 66Q319.8 64.7 319.5 60.4L317.4 14.7L321.8 7.8L296.2 67.8Q296.1 68.2 295.4 68.2Q294.7 68.2 294.5 67.8L267.4 14.3Q263.8 7.2 258 7.2Q257.7 7.2 257.7 6.6Q257.7 6 258 6Q259.9 6 262.1 6.1Q264.2 6.2 265.7 6.2Q267.9 6.2 269.7 6.1Q271.4 6 272.4 6Q273.8 6 274.6 7Q275.3 7.9 277 11.2L299.5 55.3L295.2 62.9L318.9 8.5Q319.5 7.2 320.2 6.6Q320.9 6 321.9 6Q322.8 6 323.9 6.1Q324.9 6.2 326.4 6.2Q329.4 6.2 331.5 6.1Q333.6 6 335.6 6Q335.9 6 335.9 6.6Q335.9 7.2 335.6 7.2Q331 7.2 328.8 8.9Q326.6 10.6 326.8 14.7L329 60.4Q329.2 63.3 329.8 64.8Q330.3 66.3 332 66.8Q333.6 67.3 336.8 67.3ZM386.6 34.8L387.7 33.2Q394.2 33.2 399.1 35.4Q403.9 37.6 406.6 41.4Q409.3 45.3 409.3 50.3Q409.3 55.5 406.4 59.8Q403.6 64 398.6 66.5Q393.6 68.9 387.3 68.9Q384.4 68.9 380.3 68.6Q376.2 68.3 372.8 68.3Q369.3 68.3 366.1 68.4Q362.9 68.5 360.4 68.5Q360.1 68.5 360.1 67.9Q360.1 67.3 360.4 67.3Q363.5 67.3 365.1 66.8Q366.8 66.3 367.4 64.8Q368.1 63.3 368.1 60.4L368.1 14.1Q368.1 11.2 367.5 9.7Q366.9 8.3 365.2 7.7Q363.6 7.2 360.5 7.2Q360.3 7.2 360.3 6.6Q360.3 6 360.5 6Q363 6 366.2 6.1Q369.3 6.3 372.8 6.3Q375.6 6.3 378.8 6Q382 5.7 384.9 5.7Q390.9 5.7 394.9 7.3Q399 8.8 401.1 11.7Q403.2 14.6 403.2 18.7Q403.2 24.3 398.9 28.6Q394.6 33 386.6 34.8ZM383.2 7.7Q381.2 7.7 379.9 8.2Q378.7 8.7 378.2 10.1Q377.7 11.5 377.7 14.3L377.7 33.9L374.1 33.2Q377.4 33.3 379.5 33.3Q381.6 33.4 381.8 33.4Q388 33.4 390.9 29.4Q393.8 25.4 393.8 19.6Q393.8 15.9 392.7 13.2Q391.5 10.5 389.1 9.1Q386.8 7.7 383.2 7.7ZM385.7 66.6Q392.8 66.6 396 63Q399.2 59.3 399.2 52.7Q399.2 45.3 395.4 40.6Q391.5 35.9 383.7 35.9Q382.2 35.9 379.7 35.9Q377.2 36 374.5 36.5L377.7 35.3L377.7 60.4Q377.7 62.5 378.2 63.9Q378.7 65.3 380.5 66Q382.2 66.6 385.7 66.6ZM451.7 14.2L451.7 60Q451.7 62.5 452.2 63.8Q452.7 65.1 454.1 65.5Q455.5 65.9 458.2 65.9L464.2 65.9Q471.3 65.9 476.2 61.9Q481.1 57.9 482.7 51.3Q482.8 51 483.3 51.1Q483.8 51.2 483.8 51.5Q483.5 54.6 483.2 58.9Q482.9 63.3 482.9 67Q482.9 68.5 481.4 68.5L434.6 68.5Q434.4 68.5 434.4 67.9Q434.4 67.3 434.6 67.3Q437.8 67.3 439.5 66.8Q441.1 66.3 441.7 64.8Q442.2 63.3 442.2 60.4L442.2 14.1Q442.2 11.2 441.7 9.7Q441.1 8.3 439.5 7.7Q437.8 7.2 434.6 7.2Q434.4 7.2 434.4 6.6Q434.4 6 434.6 6Q437 6 440.2 6.1Q443.4 6.3 446.9 6.3Q450.6 6.3 453.8 6.1Q456.9 6 459.3 6Q459.6 6 459.6 6.6Q459.6 7.2 459.3 7.2Q456.1 7.2 454.5 7.7Q452.8 8.3 452.3 9.8Q451.7 11.3 451.7 14.2ZM550.1 68.5L506.7 68.5Q506.4 68.5 506.4 67.9Q506.4 67.3 506.7 67.3Q510 67.3 511.6 66.8Q513.2 66.3 513.7 64.8Q514.3 63.3 514.3 60.4L514.3 14.1Q514.3 11.2 513.7 9.7Q513.2 8.3 511.6 7.7Q510 7.2 506.7 7.2Q506.4 7.2 506.4 6.6Q506.4 6 506.7 6L548.3 6Q549.3 6 549.3 6.9L549.5 19.9Q549.5 20.1 549 20.2Q548.5 20.2 548.3 19.9Q547.2 14.2 543.7 11.4Q540.2 8.6 534.5 8.6L530.4 8.6Q527.9 8.6 526.5 9.2Q525 9.7 524.4 11Q523.8 12.2 523.8 14.3L523.8 60Q523.8 62.1 524.3 63.5Q524.9 64.8 526.1 65.4Q527.3 65.9 529.5 65.9L534.4 65.9Q541.2 65.9 545.4 62.7Q549.6 59.4 551.4 53Q551.5 52.7 552 52.8Q552.6 52.9 552.6 53.1Q552.2 55.9 551.9 59.8Q551.6 63.7 551.6 67Q551.6 68.5 550.1 68.5ZM544.5 45.9Q544.5 41.7 541.7 39.5Q538.9 37.3 533.3 37.3L519.3 37.3L519.3 34.7L533.4 34.7Q539 34.7 541.7 32.8Q544.4 30.9 544.4 27.3Q544.4 27 544.9 27Q545.5 27 545.5 27.3Q545.5 30.5 545.5 32.3Q545.4 34.1 545.4 36Q545.4 38.4 545.5 40.7Q545.7 43.1 545.7 45.9Q545.7 46.1 545.1 46.1Q544.5 46.1 544.5 45.9ZM594.5 14.2L594.5 60Q594.5 62.5 595 63.8Q595.5 65.1 596.9 65.5Q598.3 65.9 601 65.9L607 65.9Q614.1 65.9 619 61.9Q623.9 57.9 625.5 51.3Q625.6 51 626.1 51.1Q626.6 51.2 626.6 51.5Q626.3 54.6 626 58.9Q625.7 63.3 625.7 67Q625.7 68.5 624.2 68.5L577.4 68.5Q577.2 68.5 577.2 67.9Q577.2 67.3 577.4 67.3Q580.6 67.3 582.3 66.8Q583.9 66.3 584.5 64.8Q585 63.3 585 60.4L585 14.1Q585 11.2 584.5 9.7Q583.9 8.3 582.3 7.7Q580.6 7.2 577.4 7.2Q577.2 7.2 577.2 6.6Q577.2 6 577.4 6Q579.8 6 583 6.1Q586.2 6.3 589.7 6.3Q593.4 6.3 596.6 6.1Q599.7 6 602.1 6Q602.4 6 602.4 6.6Q602.4 7.2 602.1 7.2Q598.9 7.2 597.3 7.7Q595.6 8.3 595.1 9.8Q594.5 11.3 594.5 14.2ZM679.9 69.7Q672.7 69.7 666.9 67.1Q661 64.6 656.9 60.1Q652.7 55.6 650.5 49.7Q648.2 43.9 648.2 37.3Q648.2 29.2 651.3 23.1Q654.5 17 659.7 12.9Q664.9 8.9 671.1 6.9Q677.3 4.9 683.4 4.9Q690.8 4.9 696.7 7.5Q702.5 10.2 706.6 14.7Q710.7 19.2 712.9 24.9Q715 30.6 715 36.6Q715 43.6 712.2 49.6Q709.4 55.6 704.5 60.1Q699.7 64.6 693.3 67.1Q687 69.7 679.9 69.7ZM683.3 67.3Q689.3 67.3 694 64.1Q698.8 60.9 701.6 54.7Q704.3 48.4 704.3 39.5Q704.3 30.2 701.3 23Q698.3 15.8 692.7 11.6Q687.1 7.5 679.3 7.5Q669.6 7.5 664.2 14.4Q658.9 21.4 658.9 33.7Q658.9 40.9 660.7 47.1Q662.5 53.2 665.7 57.8Q669 62.4 673.5 64.8Q677.9 67.3 683.3 67.3ZM773.5 69.7Q766.3 69.7 760.5 67.1Q754.6 64.6 750.5 60.1Q746.3 55.6 744.1 49.7Q741.8 43.9 741.8 37.3Q741.8 29.2 744.9 23.1Q748.1 17 753.3 12.9Q758.5 8.9 764.7 6.9Q770.9 4.9 777 4.9Q784.4 4.9 790.3 7.5Q796.1 10.2 800.2 14.7Q804.3 19.2 806.5 24.9Q808.6 30.6 808.6 36.6Q808.6 43.6 805.8 49.6Q803 55.6 798.1 60.1Q793.3 64.6 786.9 67.1Q780.6 69.7 773.5 69.7ZM776.9 67.3Q782.9 67.3 787.6 64.1Q792.4 60.9 795.2 54.7Q797.9 48.4 797.9 39.5Q797.9 30.2 794.9 23Q791.9 15.8 786.3 11.6Q780.7 7.5 772.9 7.5Q763.2 7.5 757.8 14.4Q752.5 21.4 752.5 33.7Q752.5 40.9 754.3 47.1Q756.1 53.2 759.3 57.8Q762.6 62.4 767.1 64.8Q771.5 67.3 776.9 67.3ZM850.3 60Q850.3 63 851 64.5Q851.7 66.1 853.9 66.7Q856.2 67.3 860.7 67.3Q861 67.3 861 67.9Q861 68.5 860.7 68.5Q857.5 68.5 853.7 68.4Q850 68.3 845.6 68.3Q842.1 68.3 838.9 68.4Q835.7 68.5 833.2 68.5Q832.9 68.5 832.9 67.9Q832.9 67.3 833.2 67.3Q836.5 67.3 838.1 66.8Q839.7 66.3 840.2 64.8Q840.8 63.3 840.8 60.4L840.8 14.1Q840.8 11.2 840.2 9.7Q839.7 8.3 838.1 7.7Q836.5 7.2 833.2 7.2Q832.9 7.2 832.9 6.6Q832.9 6 833.2 6Q835.7 6 838.9 6.1Q842 6.3 845.5 6.3Q847.9 6.3 851.8 6Q855.6 5.7 859.2 5.7Q865.3 5.7 870 7.4Q874.8 9 877.6 12.6Q880.4 16.2 880.6 22.1Q880.7 27.3 878.8 31.1Q876.9 34.9 873.7 37.3Q870.4 39.8 866.5 41.1Q862.6 42.3 858.7 42.3Q857.6 42.3 856.4 42.2Q855.1 42.1 853.9 41.8Q853.6 41.7 853.7 41.1Q853.8 40.4 854.2 40.5Q855 40.7 856 40.8Q857 40.9 857.7 40.9Q861 40.9 863.8 39.1Q866.6 37.3 868.4 33.6Q870.1 29.9 870.1 24.3Q870.1 19 868.4 15.3Q866.7 11.6 863.7 9.6Q860.6 7.7 856.2 7.7Q853.9 7.7 852.6 8.1Q851.3 8.6 850.8 10Q850.3 11.4 850.3 14.3Z" fill="#F3EEE7" fill-rule="nonzero"/></svg>
